<svg xmlns="http://www.w3.org/2000/svg" width="48" height="48" fill="none" id="mastercard"><path fill="#fff" d="M24 48c13.255 0 24-10.745 24-24S37.255 0 24 0 0 10.745 0 24s10.745 24 24 24Z"></path><path fill="#F79F1A" d="M38.379 24.116c0 4.923-3.983 8.913-8.897 8.913s-8.897-3.99-8.897-8.913 3.983-8.914 8.897-8.914 8.897 3.99 8.897 8.914Z"></path><path fill="#EA001B" d="M27.403 24.116c0 4.923-3.983 8.913-8.897 8.913-4.913 0-8.897-3.99-8.897-8.913s3.984-8.914 8.897-8.914c4.914 0 8.897 3.99 8.897 8.914Z"></path><path fill="#FF5F01" d="M23.994 17.099a8.902 8.902 0 0 0-3.408 7.016 8.905 8.905 0 0 0 3.408 7.018 8.906 8.906 0 0 0 3.409-7.018 8.902 8.902 0 0 0-3.409-7.016Z"></path></svg>