<svg width="31" height="32" viewBox="0 0 31 32" fill="none" xmlns="http://www.w3.org/2000/svg">
<path d="M2.62171 0.0610352C2.12686 0.0610352 1.65227 0.257616 1.30236 0.607531C0.95244 0.957446 0.755859 1.43203 0.755859 1.92689C0.755859 2.42174 0.95244 2.89633 1.30236 3.24625C1.65227 3.59616 2.12686 3.79274 2.62171 3.79274H4.89805L5.46714 6.07282C5.47279 6.09907 5.47901 6.1252 5.4858 6.15118L8.01963 16.2828L6.35342 17.9471C4.00244 20.2981 5.66679 24.3171 8.99174 24.3171H25.012C25.5068 24.3171 25.9814 24.1206 26.3313 23.7706C26.6812 23.4207 26.8778 22.9461 26.8778 22.4513C26.8778 21.9564 26.6812 21.4818 26.3313 21.1319C25.9814 20.782 25.5068 20.5854 25.012 20.5854H8.99174L10.8576 18.7196H23.1461C23.4925 18.7194 23.832 18.6228 24.1267 18.4405C24.4213 18.2583 24.6593 17.9976 24.8142 17.6878L30.4117 6.49263C30.5538 6.20824 30.6209 5.89225 30.6066 5.57464C30.5923 5.25704 30.4971 4.94836 30.33 4.67789C30.1629 4.40742 29.9295 4.18414 29.6518 4.02923C29.3742 3.87432 29.0616 3.79291 28.7437 3.79274H8.74171L8.1633 1.47349C8.06222 1.07 7.82922 0.711861 7.50131 0.455953C7.17339 0.200045 6.76937 0.0610461 6.35342 0.0610352H2.62171ZM26.8778 28.9818C26.8778 29.7241 26.5829 30.4359 26.0581 30.9608C25.5332 31.4857 24.8213 31.7805 24.079 31.7805C23.3367 31.7805 22.6249 31.4857 22.1 30.9608C21.5751 30.4359 21.2802 29.7241 21.2802 28.9818C21.2802 28.2395 21.5751 27.5276 22.1 27.0027C22.6249 26.4779 23.3367 26.183 24.079 26.183C24.8213 26.183 25.5332 26.4779 26.0581 27.0027C26.5829 27.5276 26.8778 28.2395 26.8778 28.9818ZM9.1522 31.7805C9.89448 31.7805 10.6064 31.4857 11.1312 30.9608C11.6561 30.4359 11.951 29.7241 11.951 28.9818C11.951 28.2395 11.6561 27.5276 11.1312 27.0027C10.6064 26.4779 9.89448 26.183 9.1522 26.183C8.40992 26.183 7.69804 26.4779 7.17316 27.0027C6.64829 27.5276 6.35342 28.2395 6.35342 28.9818C6.35342 29.7241 6.64829 30.4359 7.17316 30.9608C7.69804 31.4857 8.40992 31.7805 9.1522 31.7805Z" fill="#B0BABF"/>
</svg>
